<?xml version="1.0" encoding="UTF-8"?><svg id="Capa_1" xmlns="http://www.w3.org/2000/svg" viewBox="0 0 185.33 82.98"><defs><style>.cls-1,.cls-2{fill:#db0d15;}.cls-3,.cls-4{fill:#13a438;}.cls-5{fill:#1d1d1b;}.cls-4,.cls-2{fill-rule:evenodd;}</style></defs><path class="cls-5" d="m67.02,62.98v-5.43h2.21c.39,0,.69.02.89.05.29.04.53.13.72.25.19.12.35.3.47.52.12.23.18.47.18.74,0,.46-.16.85-.47,1.17-.32.32-.89.48-1.72.48h-1.5v2.21h-.78Zm.78-2.85h1.51c.5,0,.86-.09,1.07-.26.21-.17.31-.42.31-.73,0-.23-.06-.42-.19-.58-.12-.16-.29-.27-.49-.32-.13-.03-.37-.05-.72-.05h-1.5v1.94Zm4.32.88c0-.73.22-1.27.66-1.62.36-.29.81-.44,1.33-.44.58,0,1.06.18,1.43.53.37.35.55.84.55,1.47,0,.51-.08.91-.24,1.2-.16.29-.4.52-.71.68-.31.16-.65.24-1.02.24-.59,0-1.07-.18-1.44-.53-.37-.35-.55-.86-.55-1.53m.74,0c0,.5.12.88.35,1.13.24.25.54.38.89.38s.65-.13.89-.38c.24-.25.35-.64.35-1.15,0-.49-.12-.86-.36-1.11-.24-.25-.53-.38-.89-.38s-.66.12-.89.37c-.24.25-.35.63-.35,1.13m4.07,1.97v-3.94h.64v.6c.17-.28.32-.46.46-.55.14-.09.29-.13.46-.13.24,0,.49.07.74.22l-.25.62c-.17-.1-.35-.15-.53-.15-.16,0-.3.04-.42.13-.12.09-.21.21-.27.37-.08.24-.12.5-.12.78v2.06h-.72Zm7.9-1.27l.74.08c-.12.4-.33.72-.65.94-.32.22-.72.33-1.21.33-.62,0-1.11-.18-1.47-.53-.36-.35-.55-.85-.55-1.49s.18-1.18.55-1.54c.37-.37.84-.55,1.43-.55s1.03.18,1.39.54c.36.36.54.86.54,1.51,0,.04,0,.1,0,.18h-3.16c.03.43.16.76.39.99.24.23.53.35.89.35.26,0,.49-.06.68-.19.19-.13.33-.33.44-.61m-2.36-1.08h2.37c-.03-.33-.12-.58-.27-.74-.23-.26-.52-.39-.89-.39-.33,0-.61.1-.83.31-.22.2-.35.48-.37.82m3.99-3.09h.72v5.43h-.72v-5.43Zm6.87,3.99l.71.09c-.08.45-.27.81-.59,1.06-.32.26-.71.38-1.17.38-.58,0-1.05-.18-1.4-.53-.35-.35-.53-.86-.53-1.51,0-.43.08-.8.23-1.12.15-.32.38-.56.69-.72.31-.16.65-.24,1.01-.24.46,0,.84.11,1.13.33.29.22.48.52.56.92l-.7.1c-.07-.26-.19-.46-.35-.6-.17-.13-.37-.2-.61-.2-.36,0-.66.12-.88.36-.23.24-.34.62-.34,1.14s.11.91.33,1.15c.22.24.5.36.85.36.28,0,.52-.08.7-.24.19-.16.31-.41.36-.74m1.05-.53c0-.73.22-1.27.65-1.62.37-.29.81-.44,1.33-.44.58,0,1.06.18,1.43.53.37.35.55.84.55,1.47,0,.51-.08.91-.24,1.2-.16.29-.4.52-.71.68-.31.16-.66.24-1.03.24-.59,0-1.07-.18-1.44-.53-.37-.35-.55-.86-.55-1.53m.74,0c0,.5.12.88.36,1.13.24.25.54.38.89.38s.66-.13.89-.38c.24-.25.35-.64.35-1.15,0-.49-.12-.86-.36-1.11-.24-.25-.53-.38-.89-.38s-.66.12-.89.37c-.24.25-.36.63-.36,1.13m4.07,1.97v-3.94h.65v.56c.31-.43.76-.65,1.35-.65.26,0,.49.04.7.13.22.09.37.2.48.34.11.14.18.3.22.49.03.12.04.34.04.65v2.42h-.72v-2.4c0-.27-.03-.47-.08-.61-.06-.13-.16-.24-.3-.32-.14-.08-.31-.12-.5-.12-.31,0-.57.09-.79.27-.22.18-.33.52-.33,1.03v2.15h-.72Zm6.12-.6l.1.59c-.2.04-.38.06-.54.06-.26,0-.46-.04-.61-.11-.14-.08-.24-.18-.3-.3-.06-.12-.09-.39-.09-.79v-2.26h-.53v-.52h.53v-.98l.72-.4v1.37h.72v.52h-.72v2.3c0,.19.01.31.04.37.03.05.07.1.12.13.06.03.14.05.24.05.08,0,.19,0,.32-.03m.69.6v-3.94h.65v.6c.17-.28.32-.46.46-.55.14-.09.29-.13.46-.13.24,0,.49.07.74.22l-.25.62c-.17-.1-.35-.15-.53-.15-.16,0-.3.04-.42.13-.12.09-.21.21-.27.37-.08.24-.12.5-.12.78v2.06h-.72Zm2.46-1.97c0-.73.22-1.27.66-1.62.36-.29.81-.44,1.33-.44.58,0,1.06.18,1.43.53.37.35.55.84.55,1.47,0,.51-.08.91-.24,1.2-.16.29-.4.52-.71.68-.31.16-.66.24-1.03.24-.59,0-1.07-.18-1.44-.53-.36-.35-.55-.86-.55-1.53m.74,0c0,.5.12.88.35,1.13.24.25.54.38.89.38s.65-.13.89-.38c.24-.25.35-.64.35-1.15,0-.49-.12-.86-.36-1.11-.24-.25-.54-.38-.89-.38s-.66.12-.89.37c-.24.25-.35.63-.35,1.13m4.06-3.46h.72v5.43h-.72v-5.43Zm6.85,5.43v-.5c-.27.39-.66.59-1.19.59-.34,0-.65-.09-.93-.26-.28-.17-.5-.41-.66-.73-.16-.31-.23-.66-.23-1.07s.07-.75.21-1.07c.14-.32.35-.57.63-.74.28-.17.6-.26.95-.26.25,0,.48.05.68.15.2.1.36.23.49.39v-1.95h.71v5.43h-.67Zm-2.27-1.97c0,.5.11.88.34,1.13.23.25.5.37.81.37s.58-.12.8-.36c.22-.24.33-.6.33-1.09,0-.54-.11-.93-.34-1.19-.23-.25-.5-.38-.83-.38s-.59.12-.8.36c-.21.24-.32.62-.32,1.14m6.97.7l.74.08c-.12.4-.33.72-.65.94-.32.22-.72.33-1.22.33-.62,0-1.11-.18-1.47-.53-.36-.35-.55-.85-.55-1.49s.19-1.18.55-1.54c.37-.37.84-.55,1.43-.55s1.03.18,1.39.54c.36.36.54.86.54,1.51,0,.04,0,.1,0,.18h-3.16c.03.43.16.76.4.99.24.23.53.35.89.35.26,0,.49-.06.67-.19.19-.13.33-.33.44-.61m-2.36-1.08h2.37c-.03-.33-.12-.58-.27-.74-.23-.26-.53-.39-.89-.39-.33,0-.61.1-.83.31-.22.2-.35.48-.37.82m3.99-3.09h.72v5.43h-.72v-5.43Zm6.87,3.99l.71.09c-.08.45-.27.81-.59,1.06-.32.26-.71.38-1.17.38-.58,0-1.05-.18-1.4-.53-.35-.35-.53-.86-.53-1.51,0-.43.07-.8.23-1.12.15-.32.38-.56.69-.72.31-.16.65-.24,1.01-.24.46,0,.84.11,1.13.33.29.22.48.52.56.92l-.7.1c-.07-.26-.18-.46-.35-.6-.17-.13-.37-.2-.61-.2-.36,0-.66.12-.88.36-.23.24-.34.62-.34,1.14s.11.91.33,1.15c.22.24.5.36.85.36.28,0,.52-.08.71-.24.19-.16.31-.41.36-.74m4.09.96c-.27.21-.52.36-.77.45-.25.09-.51.13-.79.13-.47,0-.82-.11-1.07-.32-.25-.21-.38-.48-.38-.81,0-.19.05-.37.14-.53.09-.16.22-.29.37-.38.15-.1.33-.17.52-.22.14-.03.35-.07.64-.1.58-.07,1.01-.14,1.28-.23,0-.09,0-.15,0-.17,0-.27-.07-.46-.21-.57-.18-.15-.45-.23-.82-.23-.34,0-.59.06-.75.16-.16.11-.28.31-.36.58l-.7-.09c.07-.28.17-.5.32-.67.15-.17.36-.31.64-.4.28-.09.6-.14.96-.14s.65.04.88.12c.23.08.39.18.5.3.11.12.18.27.22.45.02.11.04.32.04.61v.89c0,.62.02,1.01.05,1.18.03.16.09.32.18.47h-.75c-.08-.14-.12-.3-.14-.49m-.06-1.49c-.26.1-.65.18-1.17.25-.3.04-.51.08-.63.13-.12.05-.22.12-.28.22-.07.1-.1.2-.1.32,0,.18.07.33.22.45.14.12.36.18.64.18s.52-.06.74-.17c.22-.11.38-.27.48-.46.08-.15.12-.37.12-.67v-.25Zm-1.4-2.45l.53-1.04h.94l-.88,1.04h-.6Zm3.24,4.43v-3.94h.65v.56c.31-.43.76-.65,1.35-.65.26,0,.49.04.7.13.22.09.37.2.48.34.11.14.18.3.22.49.03.12.04.34.04.65v2.42h-.72v-2.4c0-.27-.03-.47-.08-.61-.06-.13-.16-.24-.3-.32-.14-.08-.31-.12-.5-.12-.31,0-.57.09-.79.27-.22.18-.33.52-.33,1.03v2.15h-.72Zm7.31-1.44l.71.09c-.07.45-.27.81-.59,1.06-.32.26-.71.38-1.17.38-.58,0-1.05-.18-1.4-.53-.35-.35-.53-.86-.53-1.51,0-.43.08-.8.23-1.12.15-.32.38-.56.69-.72.31-.16.65-.24,1.01-.24.46,0,.84.11,1.13.33.29.22.48.52.57.92l-.7.1c-.07-.26-.18-.46-.35-.6-.17-.13-.37-.2-.61-.2-.36,0-.66.12-.88.36-.23.24-.34.62-.34,1.14s.11.91.33,1.15c.22.24.5.36.85.36.28,0,.52-.08.7-.24.19-.16.31-.41.36-.74m4.22.17l.74.08c-.12.4-.33.72-.65.94-.32.22-.72.33-1.21.33-.62,0-1.11-.18-1.47-.53-.36-.35-.54-.85-.54-1.49s.18-1.18.55-1.54c.37-.37.84-.55,1.43-.55s1.03.18,1.39.54c.36.36.54.86.54,1.51,0,.04,0,.1,0,.18h-3.16c.03.43.16.76.4.99.24.23.53.35.89.35.26,0,.49-.06.67-.19.19-.13.34-.33.44-.61m-2.36-1.08h2.37c-.03-.33-.12-.58-.27-.74-.23-.26-.52-.39-.89-.39-.33,0-.61.1-.83.31-.23.2-.35.48-.37.82m4,2.35v-3.94h.65v.6c.17-.28.32-.46.46-.55.14-.09.29-.13.46-.13.24,0,.49.07.74.22l-.25.62c-.18-.1-.35-.15-.53-.15-.16,0-.3.04-.42.13-.13.09-.21.21-.27.37-.08.24-.12.5-.12.78v2.06h-.72Z"/><rect class="cls-3" x="66.49" y="55.17" width="112.97" height=".67"/><path class="cls-5" d="m72.61,48.29c-.31-.27-.64-.46-.99-.6-.35-.13-.71-.2-1.1-.2-.74,0-1.34.24-1.81.71-.46.48-.7,1.09-.7,1.85s.23,1.34.68,1.81c.45.48,1.02.71,1.71.71.4,0,.78-.07,1.15-.21.36-.14.71-.36,1.04-.64v1.25c-.3.21-.62.37-.97.47-.35.11-.73.16-1.14.16-.52,0-1-.09-1.44-.25-.44-.17-.83-.42-1.16-.75-.33-.32-.58-.71-.76-1.15-.18-.44-.26-.91-.26-1.41s.09-.96.26-1.4c.18-.44.44-.82.77-1.15.34-.33.72-.59,1.16-.76.43-.17.91-.26,1.41-.26.4,0,.78.06,1.14.17.36.11.71.29,1.05.52l-.06,1.11Zm4.73,2.95c0-.41-.13-.75-.39-1.04-.26-.28-.58-.42-.96-.42s-.7.14-.96.42c-.26.28-.4.63-.4,1.04s.13.75.4,1.04c.26.28.58.42.96.42s.7-.14.96-.42c.26-.28.4-.63.4-1.04m-3.78,0c0-.32.06-.62.18-.91.12-.29.3-.54.52-.76.23-.22.49-.39.78-.51.29-.12.6-.18.92-.18s.64.06.93.18c.29.12.56.29.79.52.23.23.41.48.53.77.12.28.18.58.18.89s-.06.63-.18.91c-.12.28-.29.54-.52.76-.24.23-.51.41-.8.53-.29.12-.6.18-.93.18s-.62-.06-.92-.18c-.29-.12-.55-.29-.78-.52-.23-.23-.41-.49-.53-.77-.12-.28-.18-.59-.18-.91m5.95-4.99h1.01v7.18h-1.01v-7.18Zm5.89,5c0-.41-.13-.75-.39-1.04-.26-.28-.58-.42-.96-.42s-.7.14-.96.42c-.26.28-.4.63-.4,1.04s.13.75.4,1.04c.26.28.58.42.96.42s.69-.14.96-.42c.27-.28.4-.63.4-1.04m-3.78,0c0-.32.06-.62.18-.91.12-.29.3-.54.52-.76.23-.22.48-.39.78-.51.29-.12.6-.18.92-.18s.64.06.93.18c.29.12.55.29.79.52.23.23.41.48.53.77.12.28.18.58.18.89s-.06.63-.18.91c-.12.28-.29.54-.52.76-.24.23-.51.41-.8.53-.29.12-.6.18-.93.18s-.63-.06-.92-.18-.55-.29-.78-.52c-.23-.23-.41-.49-.53-.77-.12-.28-.18-.59-.18-.91m6.91,2.19h-1.01v-4.39h.95v.72c.2-.31.43-.53.68-.67.25-.14.56-.21.9-.21s.62.07.85.21c.23.14.4.36.51.66.23-.3.48-.52.74-.66.26-.14.56-.21.89-.21.29,0,.54.05.76.16.22.11.38.26.5.46.06.1.1.21.12.34.03.13.04.32.04.57v3.02h-1.01v-2.26c0-.59-.06-.98-.19-1.17-.12-.19-.35-.28-.67-.28-.4,0-.68.13-.84.38-.17.25-.25.69-.25,1.32v2h-1.02v-2.26c0-.55-.06-.92-.2-1.13-.13-.21-.36-.32-.68-.32-.2,0-.38.04-.54.13-.16.09-.29.21-.39.37-.06.1-.1.23-.13.38-.02.15-.04.42-.04.82v2Zm8.27-2.21c0,.45.12.81.34,1.08.23.28.53.41.89.41s.67-.13.88-.38c.21-.25.31-.61.31-1.08s-.11-.83-.33-1.09c-.22-.26-.52-.39-.9-.39s-.68.13-.89.38c-.21.25-.32.61-.32,1.06m.03-4.97v3.51c.12-.28.31-.49.56-.64.26-.15.57-.23.92-.23.58,0,1.06.22,1.42.65.36.43.54,1,.54,1.7,0,.74-.18,1.32-.53,1.74-.36.43-.85.64-1.47.64-.31,0-.58-.06-.82-.19-.24-.12-.45-.31-.63-.56v.57h-1.01v-7.18h1.01Zm4.43.89c0-.17.06-.32.19-.44.13-.12.27-.18.45-.18.18,0,.33.06.45.18.12.12.18.27.18.45s-.06.33-.18.45c-.12.12-.27.18-.45.18s-.32-.06-.45-.19c-.12-.12-.19-.27-.19-.45m.13,1.9h1.01v4.39h-1.01v-4.39Zm6.57,4.39h-1.01v-.57c-.18.25-.39.44-.63.56-.24.12-.51.19-.82.19-.62,0-1.11-.21-1.47-.64-.35-.42-.53-1.01-.53-1.74s.18-1.27.55-1.7c.36-.43.84-.65,1.43-.65.36,0,.66.07.92.23.25.15.44.36.56.64v-.72h1.01v4.39Zm-.98-2.21c0-.45-.11-.81-.32-1.06-.21-.25-.51-.38-.89-.38s-.68.13-.9.39c-.22.26-.33.62-.33,1.09s.11.83.31,1.08c.21.25.51.38.89.38.36,0,.66-.14.88-.41.23-.27.34-.64.34-1.08"/><path class="cls-5" d="m67.55,19.85h1.61v9.88h-1.61v-9.88Zm3.79,9.88v-6.4h1.38v1.05c.29-.44.64-.76,1.03-.97.4-.2.88-.3,1.44-.3.48,0,.88.08,1.22.23.33.15.6.38.79.67.11.18.19.38.24.61.05.23.07.65.07,1.23v3.88h-1.48v-3.29c0-.84-.1-1.4-.31-1.68-.2-.28-.57-.41-1.09-.41-.34,0-.65.06-.91.19-.27.13-.48.3-.63.53-.11.15-.18.35-.23.59-.04.24-.06.62-.06,1.15v2.92h-1.47Zm7.39-1.16l1.21-.66c.09.32.26.56.5.73.24.17.56.25.94.25.33,0,.58-.08.77-.23.19-.15.28-.36.28-.62,0-.35-.33-.65-1-.89-.23-.08-.4-.15-.52-.2-.68-.28-1.16-.57-1.44-.86-.27-.29-.41-.65-.41-1.07,0-.57.22-1.03.67-1.39.45-.35,1.04-.53,1.78-.53.5,0,.92.09,1.27.27.35.18.61.44.77.78l-1.04.72c-.08-.2-.21-.36-.4-.48-.19-.12-.41-.18-.67-.18-.28,0-.5.07-.67.2-.17.13-.25.31-.25.53,0,.33.38.64,1.13.91.24.09.42.15.55.21.59.23,1.01.5,1.26.79.26.29.38.66.38,1.1,0,.64-.23,1.14-.7,1.5-.46.36-1.1.54-1.92.54-.63,0-1.15-.12-1.56-.35-.42-.23-.74-.59-.97-1.07m6.97,1.16v-5.12h-1.12v-1.28h1.12v-2.42h1.47v2.42h1.12v1.28h-1.12v5.12h-1.47Zm3.72-9.17c0-.25.09-.46.27-.64.18-.18.4-.27.65-.27s.48.09.65.26c.17.17.26.39.26.65s-.09.48-.26.66c-.18.18-.39.27-.65.27s-.47-.09-.65-.27c-.18-.18-.27-.4-.27-.65m.2,2.77h1.47v6.4h-1.47v-6.4Zm3.9,6.4v-5.12h-1.12v-1.28h1.12v-2.42h1.47v2.42h1.12v1.28h-1.12v5.12h-1.47Zm5.27-6.4v3.6c0,.62.13,1.07.38,1.34.26.27.67.41,1.25.41s.99-.14,1.25-.41c.26-.27.39-.71.39-1.34v-3.6h1.47v3.17c0,1.22-.24,2.11-.74,2.67-.49.55-1.27.83-2.35.83s-1.88-.27-2.38-.82c-.49-.55-.74-1.44-.74-2.67v-3.17h1.47Zm7.05,6.4v-5.12h-1.12v-1.28h1.12v-2.42h1.47v2.42h1.12v1.28h-1.12v5.12h-1.47Zm8.88-3.18c0-.59-.19-1.1-.57-1.51-.38-.41-.85-.62-1.4-.62s-1.02.2-1.4.62c-.39.41-.58.92-.58,1.51s.19,1.1.58,1.51c.38.41.85.62,1.4.62s1.01-.21,1.4-.62c.38-.41.58-.91.58-1.51m-5.5-.01c0-.47.09-.91.27-1.33.18-.42.43-.79.77-1.11.33-.32.71-.57,1.14-.74.43-.17.87-.26,1.34-.26s.93.09,1.36.26c.43.17.81.42,1.15.76.34.33.59.7.77,1.12.18.41.26.85.26,1.3s-.09.92-.26,1.33c-.17.41-.43.78-.76,1.1-.35.34-.74.59-1.17.77-.43.17-.88.26-1.35.26s-.91-.09-1.34-.26c-.43-.17-.81-.42-1.14-.75-.34-.33-.59-.71-.77-1.12-.17-.41-.26-.86-.26-1.32m12.9,3.19v-10.28l6.28,6.04c.17.17.35.35.52.55.18.19.36.41.55.66v-6.85h1.49v10.27l-6.41-6.15c-.17-.17-.34-.34-.5-.53-.16-.19-.31-.38-.46-.58v6.87h-1.48Zm17.01,0h-1.47v-.83c-.26.37-.57.64-.91.82-.35.18-.75.27-1.2.27-.9,0-1.62-.31-2.14-.93-.52-.62-.78-1.47-.78-2.54,0-1.02.27-1.85.8-2.47.53-.63,1.22-.94,2.08-.94.52,0,.97.11,1.34.33.37.22.64.53.81.94v-1.04h1.47v6.4Zm-1.42-3.22c0-.66-.16-1.18-.46-1.55-.31-.37-.74-.55-1.29-.55s-.99.19-1.31.57c-.32.38-.47.91-.47,1.58s.15,1.2.46,1.57c.31.37.74.55,1.29.55s.96-.2,1.29-.6c.33-.4.5-.93.5-1.58m8.23-1.36c-.23-.25-.49-.44-.79-.57-.3-.13-.62-.2-.97-.2-.6,0-1.07.19-1.44.58-.36.39-.54.9-.54,1.54s.18,1.19.54,1.57c.36.38.86.57,1.5.57.35,0,.67-.07.95-.2.28-.13.52-.33.74-.6v1.69c-.27.15-.56.27-.87.34-.31.08-.64.12-.99.12-1,0-1.82-.32-2.45-.96-.63-.64-.95-1.47-.95-2.48s.33-1.86.98-2.49c.66-.63,1.51-.95,2.57-.95.33,0,.64.03.92.1.28.06.54.16.78.3v1.65Zm1.37-4.59c0-.25.09-.46.27-.64.18-.18.4-.27.65-.27s.48.09.65.26c.17.17.26.39.26.65s-.09.48-.26.66c-.18.18-.39.27-.65.27s-.47-.09-.65-.27c-.18-.18-.27-.4-.27-.65m.2,2.77h1.47v6.4h-1.47v-6.4Zm8.59,3.22c0-.59-.19-1.1-.57-1.51-.38-.41-.85-.62-1.4-.62s-1.02.2-1.4.62c-.38.41-.58.92-.58,1.51s.19,1.1.58,1.51c.39.41.85.62,1.4.62s1.01-.21,1.4-.62c.39-.41.58-.91.58-1.51m-5.5-.01c0-.47.09-.91.27-1.33.18-.42.43-.79.77-1.11.33-.32.71-.57,1.14-.74.43-.17.87-.26,1.34-.26s.93.09,1.36.26c.43.17.81.42,1.14.76.34.33.59.7.77,1.12.17.41.26.85.26,1.3s-.09.92-.26,1.33c-.17.41-.43.78-.76,1.1-.35.34-.74.59-1.17.77-.43.17-.88.26-1.35.26s-.91-.09-1.34-.26c-.43-.17-.81-.42-1.14-.75-.34-.33-.59-.71-.77-1.12-.18-.41-.26-.86-.26-1.32m8.6,3.19v-6.4h1.38v1.05c.29-.44.64-.76,1.03-.97.4-.2.88-.3,1.45-.3.48,0,.88.08,1.22.23.33.15.6.38.79.67.11.18.19.38.24.61.05.23.07.65.07,1.23v3.88h-1.48v-3.29c0-.84-.1-1.4-.31-1.68-.2-.28-.57-.41-1.09-.41-.34,0-.65.06-.91.19s-.48.3-.63.53c-.11.15-.18.35-.23.59-.04.24-.06.62-.06,1.15v2.92h-1.46Zm14.15,0h-1.46v-.83c-.26.37-.57.64-.91.82-.35.18-.75.27-1.2.27-.9,0-1.62-.31-2.14-.93-.52-.62-.78-1.47-.78-2.54,0-1.02.26-1.85.8-2.47.53-.63,1.22-.94,2.08-.94.52,0,.97.11,1.34.33.37.22.64.53.81.94v-1.04h1.46v6.4Zm-1.42-3.22c0-.66-.15-1.18-.46-1.55-.31-.37-.74-.55-1.29-.55s-.99.19-1.31.57c-.32.38-.47.91-.47,1.58s.15,1.2.46,1.57c.31.37.74.55,1.3.55.53,0,.96-.2,1.29-.6.33-.4.5-.93.5-1.58m3.52-7.24h1.47v10.47h-1.47v-10.47Z"/><path class="cls-5" d="m72,39.98c0-.66-.15-1.17-.46-1.55-.31-.37-.74-.55-1.29-.55s-.99.19-1.31.57c-.32.38-.47.91-.47,1.58s.15,1.2.46,1.57c.31.37.74.55,1.29.55s.96-.2,1.29-.6c.33-.4.49-.93.49-1.59m-.04-7.24h1.47v10.47h-1.47v-.83c-.26.37-.57.64-.92.82-.35.18-.75.27-1.2.27-.9,0-1.61-.31-2.14-.93-.52-.62-.78-1.47-.78-2.54,0-1.02.26-1.85.8-2.47.53-.63,1.22-.94,2.08-.94.52,0,.97.11,1.34.33.37.22.64.53.81.94v-5.11Zm9.66,7.48h-5.12c.04.6.21,1.06.53,1.4.32.33.75.5,1.28.5.47,0,.87-.1,1.18-.3.32-.2.59-.52.83-.96l1.24.69c-.36.64-.81,1.12-1.34,1.44-.53.32-1.15.47-1.87.47-1.03,0-1.84-.31-2.45-.94-.61-.63-.91-1.46-.91-2.51s.31-1.83.94-2.48c.63-.65,1.43-.97,2.42-.97s1.83.3,2.41.89c.58.59.86,1.42.86,2.48v.28Zm-1.52-.99c-.06-.46-.23-.81-.53-1.05-.29-.24-.69-.36-1.2-.36-.48,0-.87.12-1.16.35-.29.23-.5.59-.62,1.06h3.51Zm15.27-3.51c-.45-.39-.93-.68-1.44-.87-.51-.19-1.04-.29-1.6-.29-1.08,0-1.96.35-2.64,1.04-.68.69-1.02,1.59-1.02,2.69s.33,1.95.99,2.64c.66.69,1.49,1.04,2.5,1.04.58,0,1.14-.1,1.67-.31.53-.21,1.03-.52,1.52-.94v1.82c-.43.31-.9.54-1.41.69-.51.15-1.06.23-1.66.23-.76,0-1.45-.13-2.1-.37-.64-.25-1.2-.61-1.69-1.09-.48-.47-.85-1.03-1.11-1.67-.26-.64-.39-1.33-.39-2.05s.13-1.41.39-2.04c.26-.64.63-1.2,1.13-1.68.49-.49,1.05-.85,1.69-1.1.63-.25,1.32-.38,2.06-.38.58,0,1.14.09,1.66.25.52.17,1.04.42,1.53.77l-.09,1.62Zm7.89,7.48h-1.47v-.83c-.26.37-.57.64-.92.82-.35.18-.75.27-1.2.27-.9,0-1.62-.31-2.14-.93-.52-.62-.78-1.47-.78-2.54,0-1.02.27-1.85.8-2.47.53-.63,1.22-.94,2.08-.94.52,0,.97.11,1.34.33.37.22.64.53.81.94v-1.04h1.47v6.4Zm-1.42-3.22c0-.66-.15-1.17-.46-1.55-.31-.37-.74-.55-1.29-.55s-.99.19-1.31.57c-.32.38-.47.91-.47,1.58s.15,1.2.46,1.57c.31.37.74.55,1.3.55.53,0,.96-.2,1.29-.6.33-.4.5-.93.5-1.58m3.45,3.22v-6.4h1.38v1.05c.29-.44.64-.76,1.03-.97.39-.2.88-.31,1.44-.31.48,0,.88.08,1.22.23.33.15.6.38.79.67.11.17.19.38.24.61.05.23.07.65.07,1.23v3.88h-1.48v-3.29c0-.84-.1-1.4-.31-1.68-.21-.28-.57-.42-1.09-.42-.34,0-.65.06-.91.19-.27.13-.48.3-.63.53-.11.15-.18.35-.23.59-.04.24-.06.62-.06,1.15v2.92h-1.47Zm12.91-4.58c-.23-.25-.49-.44-.79-.57-.3-.13-.62-.2-.97-.2-.6,0-1.08.19-1.44.58-.36.39-.54.9-.54,1.54s.18,1.19.54,1.57c.36.38.86.57,1.5.57.36,0,.67-.07.95-.2.28-.13.52-.33.74-.6v1.69c-.27.15-.56.27-.87.34-.31.08-.64.12-.98.12-1,0-1.82-.32-2.45-.96-.63-.64-.95-1.47-.95-2.48s.33-1.86.98-2.49c.66-.63,1.51-.95,2.57-.95.33,0,.64.03.92.1.28.06.54.16.78.3v1.65Zm7.66,1.59h-5.12c.03.6.21,1.06.53,1.4.32.33.74.5,1.28.5.47,0,.87-.1,1.18-.3.32-.2.59-.52.83-.96l1.24.69c-.36.64-.81,1.12-1.34,1.44-.53.32-1.15.47-1.87.47-1.02,0-1.84-.31-2.45-.94-.61-.63-.91-1.46-.91-2.51s.31-1.83.94-2.48c.63-.65,1.43-.97,2.42-.97s1.83.3,2.41.89c.57.59.86,1.42.86,2.48v.28Zm-1.52-.99c-.06-.46-.23-.81-.53-1.05-.29-.24-.69-.36-1.2-.36-.48,0-.87.12-1.16.35-.29.23-.5.59-.62,1.06h3.51Zm4.51-1.41c.16-.42.37-.73.63-.94.26-.2.58-.31.96-.31.2,0,.41.03.61.07.2.05.4.12.59.22l-.53,1.24c-.12-.09-.26-.16-.41-.2-.15-.04-.31-.06-.49-.06-.48,0-.83.19-1.04.58-.21.39-.32,1.04-.32,1.96v2.81h-1.46v-6.41h1.46v1.03Zm8.66,2.2c0-.59-.19-1.1-.57-1.51-.38-.41-.85-.62-1.4-.62s-1.02.21-1.4.62c-.38.41-.58.91-.58,1.51s.19,1.1.58,1.51c.39.41.85.62,1.4.62s1.01-.21,1.4-.62c.39-.41.58-.92.58-1.51m-5.5-.01c0-.47.09-.91.27-1.33.18-.42.43-.79.77-1.11.33-.32.71-.57,1.14-.74.43-.17.87-.26,1.34-.26s.93.09,1.36.26c.43.17.81.42,1.14.76.34.33.6.7.77,1.12.18.41.26.85.26,1.3s-.09.92-.26,1.33c-.17.41-.43.78-.76,1.1-.35.34-.74.59-1.17.76-.43.17-.88.26-1.35.26s-.91-.09-1.34-.26c-.43-.17-.8-.42-1.14-.75-.34-.33-.59-.71-.77-1.12-.17-.41-.26-.85-.26-1.32m8.67-7.27h1.47v10.47h-1.47v-10.47Zm8.59,7.29c0-.59-.19-1.1-.57-1.51-.38-.41-.85-.62-1.4-.62s-1.02.21-1.4.62c-.38.41-.58.91-.58,1.51s.19,1.1.58,1.51c.39.41.85.62,1.4.62s1.01-.21,1.4-.62c.38-.41.58-.92.58-1.51m-5.5-.01c0-.47.09-.91.27-1.33.18-.42.43-.79.76-1.11.33-.32.71-.57,1.14-.74.43-.17.87-.26,1.34-.26s.93.09,1.36.26c.42.17.8.42,1.14.76.34.33.6.7.77,1.12.18.41.26.85.26,1.3s-.09.92-.26,1.33c-.17.41-.43.78-.76,1.1-.35.34-.74.59-1.17.76-.43.17-.88.26-1.35.26s-.91-.09-1.34-.26c-.43-.17-.81-.42-1.14-.75-.34-.33-.59-.71-.77-1.12-.18-.41-.26-.85-.26-1.32m13.2-.03c0-.66-.15-1.17-.46-1.55-.31-.37-.74-.55-1.29-.55s-.99.19-1.31.57c-.32.38-.48.91-.48,1.58s.15,1.2.46,1.57c.31.37.74.55,1.29.55s.96-.2,1.29-.6c.33-.4.5-.93.5-1.58m1.43,2.82c0,1.25-.25,2.13-.75,2.64-.5.51-1.34.77-2.52.77-.88,0-1.59-.19-2.11-.56-.52-.37-.79-.87-.8-1.48h1.57c.02.27.15.48.38.62.23.15.56.22.99.22.62,0,1.07-.14,1.35-.41.27-.27.41-.73.42-1.38v-.85c-.25.37-.55.64-.9.82-.35.18-.75.27-1.2.27-.9,0-1.62-.31-2.14-.93-.52-.62-.78-1.47-.78-2.54,0-1.02.27-1.85.8-2.47.53-.63,1.22-.94,2.08-.94.52,0,.97.11,1.34.33.37.22.64.53.81.94v-1.04h1.47v6Zm2.09-6h1.47v6.4h-1.47v-6.4Zm-.22-.97l1.28-1.84h1.52l-1.97,1.84h-.83Zm9.8,7.37h-1.47v-.83c-.26.37-.57.64-.91.82-.35.18-.75.27-1.2.27-.9,0-1.62-.31-2.14-.93-.52-.62-.78-1.47-.78-2.54,0-1.02.26-1.85.8-2.47.53-.63,1.22-.94,2.08-.94.52,0,.97.11,1.34.33.37.22.64.53.81.94v-1.04h1.47v6.4Zm-1.42-3.22c0-.66-.15-1.17-.46-1.55-.31-.37-.74-.55-1.29-.55s-.99.19-1.31.57c-.32.38-.48.91-.48,1.58s.15,1.2.46,1.57c.31.37.74.55,1.29.55.53,0,.95-.2,1.28-.6.33-.4.5-.93.5-1.58"/><rect class="cls-1" x="20.49" y="33.88" width="5.24" height="16.14"/><polygon class="cls-2" points="48.2 33.88 52.21 33.88 52.21 50.02 48.2 50.02 42.96 40.82 42.96 50.02 38.96 50.02 38.96 33.88 42.96 33.88 48.2 43.13 48.2 33.88"/><polygon class="cls-4" points="34.46 53.99 34.46 56.72 30.22 56.72 30.22 53.99 27.96 53.99 27.96 50.87 30.31 50.87 32.35 22.58 34.38 50.87 36.73 50.87 36.73 53.99 34.46 53.99"/><path class="cls-2" d="m34.21,13.14c11.42,0,21.26,6.75,25.75,16.48l-7.21,2.68c-3.38-6.82-10.41-11.5-18.54-11.5-11.42,0-20.68,9.26-20.68,20.68s9.26,20.68,20.68,20.68c7.98,0,14.91-4.52,18.35-11.15l7.34,2.45c-4.52,9.67-14.32,16.36-25.69,16.36-15.65,0-28.35-12.69-28.35-28.35s12.69-28.35,28.35-28.35"/></svg>